#!OML:ASF I:\Actors\actors\Patient Classification 2\Patient 1\Session 1\actor1.ASF
:FULLY-SPECIFIED
:DEGREES
348
root -0.526227 18.6007 6.35856 4.33638 24.0414 -2.3857
lowerback 12.6634 8.49654 -0.19942
upperback -1.11646 11.1074 -2.22539
thorax -7.79702 5.35795 -4.342
lowerneck -7.06118 -16.5175 -11.0914
upperneck 9.86559 -23.9459 19.7924
head 8.03894 -10.8509 5.3098
rclavicle 8.94531e-015 -4.77083e-015
rhumerus -3.8238 59.5624 -84.7731
rradius 85.2835
rwrist 17.8453
rhand 2.22656 -7.68859
rfingers 7.12502
rthumb 27.7212 -35.6651
lclavicle 8.94531e-015 -4.77083e-015
lhumerus -60.06 -28.3059 102.639
lradius 96.4335
lwrist 16.149
lhand -7.62889 -34.1233
lfingers 7.12502
lthumb 18.2659 -4.96095
rfemur 9.27179 -14.1238 17.0797
rtibia -9.54166e-015
rfoot -23.1498 -17.3772
rtoes -11.8188
lfemur -16.7635 -13.2369 -10.1901
ltibia 30.3279
lfoot -19.3769 3.33709
ltoes -55.4102
349
root -0.507644 18.6056 6.34129 4.33148 23.2667 -2.30616
lowerback 12.6612 8.37335 -0.330111
upperback -1.16797 10.9262 -2.18567
thorax -7.89417 5.27197 -4.20709
lowerneck -7.23286 -16.2605 -10.911
upperneck 10.2368 -23.5871 19.3752
head 8.049 -10.6721 5.20802
rclavicle 1.33881e-013 -2.3059e-014
rhumerus -6.38055 58.1193 -86.6356
rradius 84.6638
rwrist 18.2449
rhand 2.34369 -7.63727
rfingers 7.12502
rthumb 27.8332 -35.5957
lclavicle 1.33881e-013 -2.3059e-014
lhumerus -59.6956 -28.0043 102.267
lradius 95.2756
lwrist 16.2593
lhand -8.12074 -33.7442
lfingers 7.12502
lthumb 17.7927 -4.53814
rfemur 9.15336 -13.3528 16.9158
rtibia -4.13472e-014
rfoot -23.0994 -17.5253
rtoes -12.0086
lfemur -16.4715 -12.7891 -10.4371
ltibia 30.2221
lfoot -19.4793 3.59483
ltoes -55.2666
350
root -0.491669 18.6076 6.3187 4.31017 22.6289 -2.16908
lowerback 12.7428 8.20688 -0.502779
upperback -1.18751 10.6831 -2.09147
thorax -8.02434 5.15738 -3.99253
lowerneck -7.36442 -16.0173 -10.814
upperneck 10.4951 -23.2195 18.9581
head 8.02626 -10.5024 5.12128
rclavicle -6.92765e-014 2.38542e-015
rhumerus -8.40431 56.839 -87.7894
rradius 84.0667
rwrist 18.4606
rhand 2.18942 -7.64013
rfingers 7.12502
rthumb 27.6857 -35.6224
lclavicle -6.92765e-014 2.38542e-015
lhumerus -59.1638 -27.5206 101.891
lradius 93.9435
lwrist 16.1597
lhand -8.45165 -33.6862
lfingers 7.12502
lthumb 17.4742 -4.45154
rfemur 9.08174 -12.7194 16.6917
rtibia -1.43125e-014
rfoot -23.0679 -17.6103
rtoes -11.8418
lfemur -16.2058 -12.3795 -10.7335
ltibia 30.1115
lfoot -19.5056 3.78991
ltoes -55.1813
351
root -0.474342 18.6093 6.29745 4.28529 21.969 -2.02791
lowerback 12.7981 8.03376 -0.690958
upperback -1.19203 10.4322 -1.9557
thorax -8.13239 5.04199 -3.71763
lowerneck -7.59144 -15.7407 -11.1089
upperneck 10.9406 -22.8303 18.7632
head 8.15893 -10.3063 5.14871
rclavicle -5.14852e-014 -2.14687e-014
rhumerus -10.2473 55.6811 -88.6875
rradius 83.444
rwrist 18.5879
rhand 1.91814 -7.69381
rfingers 7.12502
rthumb 27.4263 -35.7174
lclavicle -5.14852e-014 -2.14687e-014
lhumerus -58.6228 -26.9792 101.512
lradius 92.7164
lwrist 15.9292
lhand -8.66579 -33.5988
lfingers 7.12502
lthumb 17.2681 -4.34595
rfemur 9.02061 -12.0635 16.4581
rtibia 4.29375e-014
rfoot -23.0427 -17.6474
rtoes -11.449
lfemur -15.9266 -11.9823 -11.036
ltibia 29.9856
lfoot -19.5504 4.01808
ltoes -55.0606
352
root -0.458323 18.612 6.28528 4.19278 21.3252 -1.90029
lowerback 12.7961 7.86081 -0.927757
upperback -1.17367 10.1755 -1.81882
thorax -8.18951 4.9283 -3.4018
lowerneck -7.83809 -15.448 -11.261
upperneck 11.428 -22.4226 18.4955
head 8.27922 -10.0992 5.13731
rclavicle -4.06018e-014 2.78299e-015
rhumerus -12.0804 54.4896 -89.6592
rradius 82.7106
rwrist 18.6233
rhand 1.72592 -7.85322
rfingers 7.12502
rthumb 27.2424 -35.9058
lclavicle -4.06018e-014 2.78299e-015
lhumerus -58.0618 -26.5411 101.069
lradius 91.5273
lwrist 15.7075
lhand -8.94102 -33.5798
lfingers 7.12502
lthumb 17.0032 -4.30402
rfemur 9.06483 -11.4191 16.2322
rtibia -1.90833e-014
rfoot -22.9914 -17.6912
rtoes -11.4041
lfemur -15.542 -11.5983 -11.318
ltibia 29.8579
lfoot -19.6518 4.17888
ltoes -54.9063
353
root -0.437745 18.6134 6.28693 4.07058 20.9285 -1.67483
lowerback 12.6653 7.60495 -1.20231
upperback -1.11452 9.80346 -1.71662
thorax -8.12967 4.76409 -3.05484
lowerneck -7.98316 -15.1401 -11.1937
upperneck 11.7923 -21.9849 18.1433
head 8.30019 -9.88946 5.08379
rclavicle 4.16951e-014 -1.59028e-015
rhumerus -13.8781 53.2402 -90.5419
rradius 82.0275
rwrist 18.5694
rhand 2.00261 -8.15652
rfingers 7.12502
rthumb 27.5071 -36.1673
lclavicle 4.16951e-014 -1.59028e-015
lhumerus -57.4553 -26.0918 100.602
lradius 90.2753
lwrist 15.6573
lhand -9.21638 -33.5472
lfingers 7.12502
lthumb 16.7381 -4.24872
rfemur 9.28941 -11.0184 15.8813
rtibia -1.59028e-015
rfoot -23.0175 -17.6934
rtoes -11.4858
lfemur -15.0766 -11.3466 -11.7021
ltibia 29.7356
lfoot -19.7628 4.22098
ltoes -54.858
354
root -0.416862 18.6168 6.27959 4.14857 20.524 -1.60386
lowerback 12.4823 7.32851 -1.19712
upperback -1.22423 9.44278 -1.697
thorax -8.15726 4.58992 -2.95235
lowerneck -8.13266 -14.855 -10.8298
upperneck 12.1975 -21.586 17.6039
head 8.28506 -9.69688 4.92166
rclavicle 4.32357e-014 -2.74323e-014
rhumerus -15.8542 51.7693 -91.6155
rradius 81.3944
rwrist 18.8926
rhand 2.5921 -8.30134
rfingers 7.12502
rthumb 28.0707 -36.2211
lclavicle 4.32357e-014 -2.74323e-014
lhumerus -57.2241 -25.478 100.091
lradius 89.3016
lwrist 15.7632
lhand -9.44414 -33.4412
lfingers 7.12502
lthumb 16.5189 -4.12441
rfemur 9.16853 -10.6193 15.745
rtibia -1.90833e-014
rfoot -23.0398 -17.7675
rtoes -11.5719
lfemur -14.9548 -11.0268 -11.8761
ltibia 29.6245
lfoot -19.7934 4.29269
ltoes -54.877
355
root -0.406814 18.6221 6.25088 4.28084 19.4796 -1.77727
lowerback 12.4698 7.26073 -1.08677
upperback -1.44795 9.37163 -1.67382
thorax -8.38045 4.54545 -2.99341
lowerneck -8.36005 -14.591 -10.4198
upperneck 12.633 -21.2215 17.0547
head 8.29706 -9.51356 4.73631
rclavicle 6.86801e-014 1.66979e-014
rhumerus -17.7098 50.3007 -92.5786
rradius 80.7713
rwrist 19.3562
rhand 2.70369 -8.34016
rfingers 7.12502
rthumb 28.1774 -36.2424
lclavicle 6.86801e-014 1.66979e-014
lhumerus -57.1189 -24.8092 99.5365
lradius 88.5078
lwrist 16.1253
lhand -9.88568 -33.3331
lfingers 7.12502
lthumb 16.0937 -3.98141
rfemur 8.66832 -9.58576 15.9124
rtibia -2.8625e-014
rfoot -22.9367 -17.9588
rtoes -11.5978
lfemur -14.9579 -10.1658 -11.7924
ltibia 29.5298
lfoot -19.8142 4.46051
ltoes -54.8282
356
root -0.393036 18.6236 6.23839 4.43826 18.8704 -1.70682
lowerback 12.1565 7.0473 -1.21892
upperback -1.51481 9.07825 -1.63364
thorax -8.31065 4.41382 -2.78757
lowerneck -8.62365 -14.29 -10.566
upperneck 13.0909 -20.8297 16.9956
head 8.44688 -9.3037 4.78497
rclavicle 2.40529e-014 1.78906e-014
rhumerus -19.3009 49.0795 -93.1885
rradius 80.2092
rwrist 19.4815
rhand 2.34549 -8.56006
rfingers 7.12502
rthumb 27.835 -36.5182
lclavicle 2.40529e-014 1.78906e-014
lhumerus -56.5619 -24.2175 98.9182
lradius 87.3071
lwrist 16.6826
lhand -10.3859 -33.5688
lfingers 7.12502
lthumb 15.612 -4.17885
rfemur 8.4068 -8.99386 15.8187
rtibia -2.8625e-014
rfoot -23.0112 -17.9403
rtoes -11.0474
lfemur -14.9467 -9.68968 -11.9383
ltibia 29.4585
lfoot -19.8367 4.54853
ltoes -54.7348
357
root -0.360005 18.6201 6.23976 3.99948 17.9842 -1.57898
lowerback 12.1591 6.94888 -1.24652
upperback -1.32256 8.94876 -1.55872
thorax -8.12367 4.35813 -2.65263
lowerneck -8.94773 -14.0055 -10.7081
upperneck 13.559 -20.438 16.8444
head 8.59922 -9.09815 4.80069
rclavicle 3.21037e-014 -1.27222e-014
rhumerus -20.7764 47.6889 -93.646
rradius 79.5759
rwrist 19.5805
rhand 2.12102 -8.6393
rfingers 7.12502
rthumb 27.6203 -36.632
lclavicle 3.21037e-014 -1.27222e-014
lhumerus -55.8142 -23.6117 98.2652
lradius 85.802
lwrist 17.0363
lhand -10.5063 -34.6453
lfingers 7.12502
lthumb 15.496 -5.24635
rfemur 8.82833 -8.07607 15.4665
rtibia -3.65764e-014
rfoot -23.123 -17.887
rtoes -10.7546
lfemur -14.1006 -9.44242 -12.379
ltibia 29.3806
lfoot -20.161 4.99954
ltoes -54.557
358
root -0.338303 18.6236 6.23413 4.04888 17.2851 -1.52311
lowerback 11.7737 6.78483 -1.45218
upperback -1.3031 8.72362 -1.38278
thorax -7.94853 4.26732 -2.26418
lowerneck -9.24413 -13.6858 -10.5477
upperneck 13.9414 -19.9377 16.2735
head 8.61869 -8.86738 4.65846
rclavicle 2.26615e-014 -1.07344e-014
rhumerus -22.213 46.2899 -93.9511
rradius 78.9104
rwrist 19.6909
rhand 2.57448 -7.82443
rfingers 7.12502
rthumb 28.0539 -35.747
lclavicle 2.26615e-014 -1.07344e-014
lhumerus -55.3466 -22.953 98.0292
lradius 85.301
lwrist 17.6498
lhand -11.1952 -33.0501
lfingers 7.12502
lthumb 14.8324 -3.60099
rfemur 8.66793 -7.38271 15.3232
rtibia 1.74931e-014
rfoot -23.1148 -17.8979
rtoes -10.6345
lfemur -13.9206 -8.986 -12.5731
ltibia 29.2875
lfoot -20.2956 5.21191
ltoes -54.4244
359
root -0.322731 18.6283 6.22541 4.13906 16.6592 -1.46287
lowerback 11.3421 6.54286 -1.9788
upperback -1.28716 8.36454 -1.04088
thorax -7.8213 4.12684 -1.50477
lowerneck -9.48536 -13.2608 -10.3146
upperneck 14.1974 -19.249 15.5419
head 8.53755 -8.56841 4.48771
rclavicle 2.33572e-015 -6.36111e-015
rhumerus -23.5268 45.3446 -93.9926
rradius 78.2766
rwrist 19.7023
rhand 3.05554 -7.16461
rfingers 7.12502
rthumb 28.5136 -35.011
lclavicle 2.33572e-015 -6.36111e-015
lhumerus -54.8047 -21.841 97.6905
lradius 84.4125
lwrist 17.555
lhand -11.7244 -32.6232
lfingers 7.12502
lthumb 14.3226 -3.13719
rfemur 8.46905 -6.76789 15.2023
rtibia 2.70347e-014
rfoot -23.0292 -17.9267
rtoes -10.6965
lfemur -13.8163 -8.4932 -12.7269
ltibia 29.1877
lfoot -20.3655 5.31474
ltoes -54.4066
